<mxfile host="app.diagrams.net" modified="2024-07-03T04:18:29.375Z" agent="Mozilla/5.0 (X11; Linux x86_64) AppleWebKit/537.36 (KHTML, like Gecko) Chrome/126.0.0.0 Safari/537.36" etag="2CVr04CdXJ0b5Kx00yIx" version="24.6.4" type="github">
  <diagram id="C5RBs43oDa-KdzZeNtuy" name="Page-1">
    <mxGraphModel dx="2261" dy="754" grid="1" gridSize="10" guides="1" tooltips="1" connect="1" arrows="1" fold="1" page="1" pageScale="1" pageWidth="827" pageHeight="1169" math="0" shadow="0">
      <root>
        <mxCell id="WIyWlLk6GJQsqaUBKTNV-0" />
        <mxCell id="WIyWlLk6GJQsqaUBKTNV-1" parent="WIyWlLk6GJQsqaUBKTNV-0" />
        <mxCell id="qngFph5K97ZylDXf8UIM-35" value="" style="edgeStyle=orthogonalEdgeStyle;rounded=0;orthogonalLoop=1;jettySize=auto;html=1;" parent="WIyWlLk6GJQsqaUBKTNV-1" source="qngFph5K97ZylDXf8UIM-1" target="qngFph5K97ZylDXf8UIM-34" edge="1">
          <mxGeometry relative="1" as="geometry" />
        </mxCell>
        <mxCell id="qngFph5K97ZylDXf8UIM-1" value="Login" style="rounded=1;whiteSpace=wrap;html=1;" parent="WIyWlLk6GJQsqaUBKTNV-1" vertex="1">
          <mxGeometry x="320" y="330" width="120" height="40" as="geometry" />
        </mxCell>
        <mxCell id="qngFph5K97ZylDXf8UIM-30" value="" style="edgeStyle=orthogonalEdgeStyle;rounded=0;orthogonalLoop=1;jettySize=auto;html=1;entryX=0;entryY=0.5;entryDx=0;entryDy=0;" parent="WIyWlLk6GJQsqaUBKTNV-1" source="qngFph5K97ZylDXf8UIM-28" target="qngFph5K97ZylDXf8UIM-53" edge="1">
          <mxGeometry relative="1" as="geometry">
            <mxPoint x="650" y="220" as="targetPoint" />
          </mxGeometry>
        </mxCell>
        <mxCell id="qngFph5K97ZylDXf8UIM-32" value="No" style="edgeLabel;html=1;align=center;verticalAlign=middle;resizable=0;points=[];" parent="qngFph5K97ZylDXf8UIM-30" vertex="1" connectable="0">
          <mxGeometry x="-0.12" y="-1" relative="1" as="geometry">
            <mxPoint as="offset" />
          </mxGeometry>
        </mxCell>
        <mxCell id="qngFph5K97ZylDXf8UIM-31" value="" style="edgeStyle=orthogonalEdgeStyle;rounded=0;orthogonalLoop=1;jettySize=auto;html=1;" parent="WIyWlLk6GJQsqaUBKTNV-1" source="qngFph5K97ZylDXf8UIM-28" target="qngFph5K97ZylDXf8UIM-1" edge="1">
          <mxGeometry relative="1" as="geometry" />
        </mxCell>
        <mxCell id="qngFph5K97ZylDXf8UIM-33" value="Yes" style="edgeLabel;html=1;align=center;verticalAlign=middle;resizable=0;points=[];" parent="qngFph5K97ZylDXf8UIM-31" vertex="1" connectable="0">
          <mxGeometry x="-0.4" y="1" relative="1" as="geometry">
            <mxPoint as="offset" />
          </mxGeometry>
        </mxCell>
        <mxCell id="qngFph5K97ZylDXf8UIM-28" value="is user registered" style="rhombus;whiteSpace=wrap;html=1;rounded=1;glass=0;strokeWidth=1;shadow=0;" parent="WIyWlLk6GJQsqaUBKTNV-1" vertex="1">
          <mxGeometry x="320" y="180" width="120" height="80" as="geometry" />
        </mxCell>
        <mxCell id="qngFph5K97ZylDXf8UIM-52" value="" style="edgeStyle=orthogonalEdgeStyle;rounded=0;orthogonalLoop=1;jettySize=auto;html=1;" parent="WIyWlLk6GJQsqaUBKTNV-1" source="qngFph5K97ZylDXf8UIM-34" edge="1">
          <mxGeometry relative="1" as="geometry">
            <mxPoint x="560" y="470" as="targetPoint" />
          </mxGeometry>
        </mxCell>
        <mxCell id="qngFph5K97ZylDXf8UIM-55" value="Upload ebook" style="edgeLabel;html=1;align=center;verticalAlign=middle;resizable=0;points=[];" parent="qngFph5K97ZylDXf8UIM-52" vertex="1" connectable="0">
          <mxGeometry x="-0.04" y="-3" relative="1" as="geometry">
            <mxPoint as="offset" />
          </mxGeometry>
        </mxCell>
        <mxCell id="qngFph5K97ZylDXf8UIM-57" value="" style="edgeStyle=orthogonalEdgeStyle;rounded=0;orthogonalLoop=1;jettySize=auto;html=1;" parent="WIyWlLk6GJQsqaUBKTNV-1" source="qngFph5K97ZylDXf8UIM-34" target="qngFph5K97ZylDXf8UIM-56" edge="1">
          <mxGeometry relative="1" as="geometry" />
        </mxCell>
        <mxCell id="qngFph5K97ZylDXf8UIM-58" value="Search Ebook" style="edgeLabel;html=1;align=center;verticalAlign=middle;resizable=0;points=[];" parent="qngFph5K97ZylDXf8UIM-57" vertex="1" connectable="0">
          <mxGeometry x="-0.2667" y="-1" relative="1" as="geometry">
            <mxPoint as="offset" />
          </mxGeometry>
        </mxCell>
        <mxCell id="qngFph5K97ZylDXf8UIM-60" value="" style="edgeStyle=orthogonalEdgeStyle;rounded=0;orthogonalLoop=1;jettySize=auto;html=1;" parent="WIyWlLk6GJQsqaUBKTNV-1" source="qngFph5K97ZylDXf8UIM-34" target="qngFph5K97ZylDXf8UIM-59" edge="1">
          <mxGeometry relative="1" as="geometry" />
        </mxCell>
        <mxCell id="qngFph5K97ZylDXf8UIM-61" value="Browse ebook" style="edgeLabel;html=1;align=center;verticalAlign=middle;resizable=0;points=[];" parent="qngFph5K97ZylDXf8UIM-60" vertex="1" connectable="0">
          <mxGeometry x="0.0714" y="2" relative="1" as="geometry">
            <mxPoint as="offset" />
          </mxGeometry>
        </mxCell>
        <mxCell id="qngFph5K97ZylDXf8UIM-34" value="choose an option" style="rhombus;whiteSpace=wrap;html=1;rounded=1;" parent="WIyWlLk6GJQsqaUBKTNV-1" vertex="1">
          <mxGeometry x="320" y="430" width="120" height="80" as="geometry" />
        </mxCell>
        <mxCell id="qngFph5K97ZylDXf8UIM-53" value="register" style="rounded=1;whiteSpace=wrap;html=1;" parent="WIyWlLk6GJQsqaUBKTNV-1" vertex="1">
          <mxGeometry x="560" y="190" width="120" height="60" as="geometry" />
        </mxCell>
        <mxCell id="qngFph5K97ZylDXf8UIM-62" value="" style="edgeStyle=orthogonalEdgeStyle;rounded=0;orthogonalLoop=1;jettySize=auto;html=1;" parent="WIyWlLk6GJQsqaUBKTNV-1" source="qngFph5K97ZylDXf8UIM-54" target="qngFph5K97ZylDXf8UIM-28" edge="1">
          <mxGeometry relative="1" as="geometry" />
        </mxCell>
        <mxCell id="qngFph5K97ZylDXf8UIM-54" value="start" style="rounded=1;whiteSpace=wrap;html=1;" parent="WIyWlLk6GJQsqaUBKTNV-1" vertex="1">
          <mxGeometry x="320" y="90" width="120" height="60" as="geometry" />
        </mxCell>
        <mxCell id="qngFph5K97ZylDXf8UIM-68" value="" style="edgeStyle=orthogonalEdgeStyle;rounded=0;orthogonalLoop=1;jettySize=auto;html=1;" parent="WIyWlLk6GJQsqaUBKTNV-1" source="qngFph5K97ZylDXf8UIM-56" target="qngFph5K97ZylDXf8UIM-67" edge="1">
          <mxGeometry relative="1" as="geometry" />
        </mxCell>
        <mxCell id="qngFph5K97ZylDXf8UIM-70" value="search query" style="edgeLabel;html=1;align=center;verticalAlign=middle;resizable=0;points=[];" parent="qngFph5K97ZylDXf8UIM-68" vertex="1" connectable="0">
          <mxGeometry x="0.075" y="-4" relative="1" as="geometry">
            <mxPoint as="offset" />
          </mxGeometry>
        </mxCell>
        <mxCell id="qngFph5K97ZylDXf8UIM-56" value="input query" style="whiteSpace=wrap;html=1;rounded=1;" parent="WIyWlLk6GJQsqaUBKTNV-1" vertex="1">
          <mxGeometry x="320" y="580" width="120" height="60" as="geometry" />
        </mxCell>
        <mxCell id="qngFph5K97ZylDXf8UIM-64" value="" style="edgeStyle=orthogonalEdgeStyle;rounded=0;orthogonalLoop=1;jettySize=auto;html=1;" parent="WIyWlLk6GJQsqaUBKTNV-1" source="qngFph5K97ZylDXf8UIM-59" target="qngFph5K97ZylDXf8UIM-63" edge="1">
          <mxGeometry relative="1" as="geometry" />
        </mxCell>
        <mxCell id="PvZ6p9l6Ulo__0c_FSCf-1" value="" style="edgeStyle=orthogonalEdgeStyle;rounded=0;orthogonalLoop=1;jettySize=auto;html=1;exitX=0.5;exitY=1;exitDx=0;exitDy=0;" edge="1" parent="WIyWlLk6GJQsqaUBKTNV-1" source="qngFph5K97ZylDXf8UIM-63" target="PvZ6p9l6Ulo__0c_FSCf-0">
          <mxGeometry relative="1" as="geometry">
            <mxPoint x="10" y="630" as="sourcePoint" />
          </mxGeometry>
        </mxCell>
        <mxCell id="qngFph5K97ZylDXf8UIM-59" value="tampilkan rekomendasi ebook" style="whiteSpace=wrap;html=1;rounded=1;" parent="WIyWlLk6GJQsqaUBKTNV-1" vertex="1">
          <mxGeometry x="-10" y="440" width="120" height="60" as="geometry" />
        </mxCell>
        <mxCell id="qngFph5K97ZylDXf8UIM-66" value="" style="edgeStyle=orthogonalEdgeStyle;rounded=0;orthogonalLoop=1;jettySize=auto;html=1;exitX=0.5;exitY=1;exitDx=0;exitDy=0;" parent="WIyWlLk6GJQsqaUBKTNV-1" source="PvZ6p9l6Ulo__0c_FSCf-0" target="qngFph5K97ZylDXf8UIM-65" edge="1">
          <mxGeometry relative="1" as="geometry" />
        </mxCell>
        <mxCell id="qngFph5K97ZylDXf8UIM-63" value="pilih ebook" style="whiteSpace=wrap;html=1;rounded=1;" parent="WIyWlLk6GJQsqaUBKTNV-1" vertex="1">
          <mxGeometry x="-10" y="570" width="120" height="60" as="geometry" />
        </mxCell>
        <mxCell id="qngFph5K97ZylDXf8UIM-65" value="download ebook" style="whiteSpace=wrap;html=1;rounded=1;" parent="WIyWlLk6GJQsqaUBKTNV-1" vertex="1">
          <mxGeometry x="60" y="800" width="120" height="60" as="geometry" />
        </mxCell>
        <mxCell id="PvZ6p9l6Ulo__0c_FSCf-12" value="" style="edgeStyle=orthogonalEdgeStyle;rounded=0;orthogonalLoop=1;jettySize=auto;html=1;entryX=1;entryY=0.75;entryDx=0;entryDy=0;" edge="1" parent="WIyWlLk6GJQsqaUBKTNV-1" source="qngFph5K97ZylDXf8UIM-67" target="qngFph5K97ZylDXf8UIM-59">
          <mxGeometry relative="1" as="geometry">
            <mxPoint x="240" y="750" as="targetPoint" />
            <Array as="points">
              <mxPoint x="280" y="750" />
              <mxPoint x="280" y="485" />
            </Array>
          </mxGeometry>
        </mxCell>
        <mxCell id="qngFph5K97ZylDXf8UIM-67" value="search database" style="whiteSpace=wrap;html=1;rounded=1;" parent="WIyWlLk6GJQsqaUBKTNV-1" vertex="1">
          <mxGeometry x="320" y="720" width="120" height="60" as="geometry" />
        </mxCell>
        <mxCell id="qngFph5K97ZylDXf8UIM-80" value="" style="edgeStyle=orthogonalEdgeStyle;rounded=0;orthogonalLoop=1;jettySize=auto;html=1;" parent="WIyWlLk6GJQsqaUBKTNV-1" source="qngFph5K97ZylDXf8UIM-78" target="qngFph5K97ZylDXf8UIM-79" edge="1">
          <mxGeometry relative="1" as="geometry" />
        </mxCell>
        <mxCell id="VcsWkmnGzXvl-vcmL3am-1" value="No" style="edgeLabel;html=1;align=center;verticalAlign=middle;resizable=0;points=[];" parent="qngFph5K97ZylDXf8UIM-80" vertex="1" connectable="0">
          <mxGeometry x="-0.175" y="-4" relative="1" as="geometry">
            <mxPoint as="offset" />
          </mxGeometry>
        </mxCell>
        <mxCell id="qngFph5K97ZylDXf8UIM-82" value="" style="edgeStyle=orthogonalEdgeStyle;rounded=0;orthogonalLoop=1;jettySize=auto;html=1;" parent="WIyWlLk6GJQsqaUBKTNV-1" source="qngFph5K97ZylDXf8UIM-78" target="qngFph5K97ZylDXf8UIM-81" edge="1">
          <mxGeometry relative="1" as="geometry" />
        </mxCell>
        <mxCell id="VcsWkmnGzXvl-vcmL3am-0" value="Yes" style="edgeLabel;html=1;align=center;verticalAlign=middle;resizable=0;points=[];" parent="qngFph5K97ZylDXf8UIM-82" vertex="1" connectable="0">
          <mxGeometry x="-0.1111" y="3" relative="1" as="geometry">
            <mxPoint as="offset" />
          </mxGeometry>
        </mxCell>
        <mxCell id="qngFph5K97ZylDXf8UIM-78" value="validasi ebook" style="rhombus;whiteSpace=wrap;html=1;rounded=1;" parent="WIyWlLk6GJQsqaUBKTNV-1" vertex="1">
          <mxGeometry x="560" y="430" width="120" height="80" as="geometry" />
        </mxCell>
        <mxCell id="qngFph5K97ZylDXf8UIM-79" value="tampilkan pesan error" style="whiteSpace=wrap;html=1;rounded=1;" parent="WIyWlLk6GJQsqaUBKTNV-1" vertex="1">
          <mxGeometry x="760" y="440" width="120" height="60" as="geometry" />
        </mxCell>
        <mxCell id="qngFph5K97ZylDXf8UIM-81" value="upload ebook" style="whiteSpace=wrap;html=1;rounded=1;" parent="WIyWlLk6GJQsqaUBKTNV-1" vertex="1">
          <mxGeometry x="560" y="600" width="120" height="60" as="geometry" />
        </mxCell>
        <mxCell id="PvZ6p9l6Ulo__0c_FSCf-3" value="" style="edgeStyle=orthogonalEdgeStyle;rounded=0;orthogonalLoop=1;jettySize=auto;html=1;" edge="1" parent="WIyWlLk6GJQsqaUBKTNV-1" source="PvZ6p9l6Ulo__0c_FSCf-0" target="PvZ6p9l6Ulo__0c_FSCf-2">
          <mxGeometry relative="1" as="geometry" />
        </mxCell>
        <mxCell id="PvZ6p9l6Ulo__0c_FSCf-5" value="" style="edgeStyle=orthogonalEdgeStyle;rounded=0;orthogonalLoop=1;jettySize=auto;html=1;" edge="1" parent="WIyWlLk6GJQsqaUBKTNV-1" source="PvZ6p9l6Ulo__0c_FSCf-0" target="PvZ6p9l6Ulo__0c_FSCf-4">
          <mxGeometry relative="1" as="geometry" />
        </mxCell>
        <mxCell id="PvZ6p9l6Ulo__0c_FSCf-6" value="" style="edgeStyle=orthogonalEdgeStyle;rounded=0;orthogonalLoop=1;jettySize=auto;html=1;" edge="1" parent="WIyWlLk6GJQsqaUBKTNV-1" source="PvZ6p9l6Ulo__0c_FSCf-0" target="PvZ6p9l6Ulo__0c_FSCf-2">
          <mxGeometry relative="1" as="geometry" />
        </mxCell>
        <mxCell id="PvZ6p9l6Ulo__0c_FSCf-0" value="detail ebook" style="whiteSpace=wrap;html=1;rounded=1;" vertex="1" parent="WIyWlLk6GJQsqaUBKTNV-1">
          <mxGeometry x="-10" y="670" width="120" height="60" as="geometry" />
        </mxCell>
        <mxCell id="PvZ6p9l6Ulo__0c_FSCf-2" value="Favoritkan Ebook" style="whiteSpace=wrap;html=1;rounded=1;" vertex="1" parent="WIyWlLk6GJQsqaUBKTNV-1">
          <mxGeometry x="-70" y="800" width="120" height="60" as="geometry" />
        </mxCell>
        <mxCell id="PvZ6p9l6Ulo__0c_FSCf-4" value="beri Komentar" style="whiteSpace=wrap;html=1;rounded=1;" vertex="1" parent="WIyWlLk6GJQsqaUBKTNV-1">
          <mxGeometry x="190" y="800" width="120" height="60" as="geometry" />
        </mxCell>
        <mxCell id="PvZ6p9l6Ulo__0c_FSCf-7" value="beri rating" style="whiteSpace=wrap;html=1;rounded=1;" vertex="1" parent="WIyWlLk6GJQsqaUBKTNV-1">
          <mxGeometry x="-200" y="800" width="120" height="60" as="geometry" />
        </mxCell>
        <mxCell id="PvZ6p9l6Ulo__0c_FSCf-10" value="" style="edgeStyle=orthogonalEdgeStyle;rounded=0;orthogonalLoop=1;jettySize=auto;html=1;exitX=0;exitY=0.5;exitDx=0;exitDy=0;entryX=0.5;entryY=0;entryDx=0;entryDy=0;" edge="1" parent="WIyWlLk6GJQsqaUBKTNV-1" source="PvZ6p9l6Ulo__0c_FSCf-0" target="PvZ6p9l6Ulo__0c_FSCf-7">
          <mxGeometry relative="1" as="geometry">
            <mxPoint x="-30" y="710" as="sourcePoint" />
            <mxPoint x="-120" y="810" as="targetPoint" />
          </mxGeometry>
        </mxCell>
      </root>
    </mxGraphModel>
  </diagram>
</mxfile>
